<?xml version="1.0" encoding="UTF-8"?>
<svg id="logos" xmlns="http://www.w3.org/2000/svg" viewBox="0 0 1080 324.9719">
  <defs>
    <style>
      .cls-1 {
        fill: #fff;
      }
    </style>
  </defs>
  <g>
    <path class="cls-1" d="M201.3569,73.1401c-1.6175-4.1356-4.9934-3.5729-11.591-3.6573-5.092,0-10.0999-.0141-15.3186,0-20.0029.0985-43.9306-.225-62.738.1547-7.0756.5908-7.1316,10.1704-3.8684,16.1347,2.9401,6.1753,12.9136,6.8646,17.3304,9.4388,1.6316,1.1113,1.7865,2.6024,1.8428,4.4311-.0282,15.572.0422,114.6865.0282,181.9962l-65.9171-28.5556c-28.6961-12.4351-41.8769-45.7875-29.4417-74.4837L90.7639,42.2494C103.1991,13.5532,136.5373.3726,165.2334,12.8077l95.3448,41.3142v111.9154c-31.777,15.7267-70.3058,13.0259-99.8742-8.3698,5.6971,2.6867,11.5629,4.7827,17.499,6.2878.0141-29.3995.1408-54.8605.1549-59.5728.0986-3.1088.1686-6.4285,2.5881-8.5526,2.7993-2.3914,7.4836-2.9399,11.183-4.1356,8.1729-1.9552,12.0694-11.0283,9.2279-18.5541Z"/>
    <path class="cls-1" d="M293.6493,178.7958c-9.7623,10.4375-20.9597,18.9058-33.071,25.3061v95.612c-15.9378,16.3597-40.9063,22.0708-63.1038,12.4491l-19.0606-8.2572c-.0419-4.7405-.0841-9.7904-.1123-15.0514-.0282-5.8378-.0563-84.4711-.0704-90.6605,38.5851,12.7304,81.8828,6.1894,115.4181-19.3981Z"/>
    <path class="cls-1" d="M331.0386,146.3718l-19.3418,44.634c-.0137-41.7222-.0137-83.2614.0282-113.4206,21.48,15.1218,30.1735,43.7196,19.3137,68.7866Z"/>
  </g>
  <g>
    <path class="cls-1" d="M581.5526,230.7785c-23.0928.1279-39.6972-19.2012-35.9148-41.9486,2.0587-13.5125,13.5214-22.4662,25.4811-27.2119,10.4736-4.1913,22.0522-6.1726,33.3069-7.0367,6.472-.3493,10.9304-3.2498,10.3849-9.7117-1.1223-14.0439-12.3843-16.9942-25.3984-16.1847-8.0857.2708-16.1235,2.552-23.5982,5.3829-3.6108,1.3468-7.0009,1.9144-9.7238-1.3347-2.3015-2.5492-4.0103-6.7476-3.6282-9.7422.5249-3.756,4.3515-5.4777,7.3788-7.1231,4.3996-2.281,9.0766-4.2419,13.7981-5.8102,12.9111-4.441,26.4708-5.7275,39.9811-4.2748,17.3196,1.4222,30.3414,10.9361,33.6294,28.0511,1.845,8.7826,1.8155,17.1063,1.771,25.73.0087,12.7321-.017,34.5541.0099,48.6883-.3893,6.8773,4.8321,4.19,8.808,8.1504,3.4111,3.2816,1.9083,9.2485-2.0832,11.3718-5.0468,2.272-11.2763,2.1496-16.81,2.786-7.0414.3874-14.7339.4964-18.2948-3.6636-1.6469-1.8379-2.3644-4.6584-3.4447-6.7244-3.5736-7.1589-11.2353,10.9209-35.4518,10.6076l-.2013-.0017ZM598.4437,210.9382c5.7765-.1243,11.9961-2.6089,15.3341-6.9189,2.1041-3.3586,1.8129-6.4767,1.8933-11.8923-.2718-5.8457.7193-16.068-.7718-20.7232-1.3816-3.6852-6.178-2.9952-9.4636-2.5172-8.841,1.3548-17.9674,5.8314-21.3004,14.5186-4.3603,10.7799.9049,27.2867,14.1192,27.5295l.1891.0035Z"/>
    <path class="cls-1" d="M662.2189,278.6844c-1.4059-3.1793.0681-8.9657,3.7046-11.1186,2.4635-2.2142,8.5322-1.6997,8.5725-5.6812-.2803-34.4908.6414-112.46-.3405-129.8218-2.2503-2.9713-7.8256-2.874-10.3844-6.7271-2.7767-3.9802-3.0258-10.4275-.5653-14.1354,1.5043-1.5983,3.1804-1.7582,5.811-2.2087,5.1972-.6691,11.2021-1.3986,16.5615-2.0563,6.8196-.4652,14.4145-3.3041,18.3488,2.2932,1.2007,1.8202,2.0569,4.6079,2.9902,6.3671.7175,1.4146,1.5213,1.985,2.8008,1.6196,1.9757-.5227,5.177-3.6137,8.6495-5.6584,2.4794-1.5183,5.1074-2.7941,7.842-3.7769,22.9231-7.9613,47.784,3.466,56.1427,26.1851,12.8882,36.2874.8288,83.1409-39.8703,94.2529-25.5092,7.3996-34.5865-7.085-33.1742,15.2717.0955,3.4964.1215,7.0166.1437,10.5127.0207,3.7759.2735,7.4548,2.465,9.4701,1.8439,1.7359,4.4367,2.2259,6.8645,2.7577,2.7838.5535,5.9952,1.5337,7.5693,3.8584,1.8925,2.7418,2.1422,6.6863.502,9.5308-1.1961,1.7728-3.8438,1.4135-8.123,1.4638-6.1174-.003-12.2134.0022-18.4249,0-8.4096.0049-19.0527-.0036-26.4637,0-3.9428-.3502-10.6443,1.2061-11.5812-2.2948l-.0404-.1041ZM723.0811,216.6303c29.1064-1.3353,28.4699-46.7566,24.9338-68.0064-1.9908-11.4449-8.947-24.2441-22.1363-23.55-5.327.2761-11.0532,2.3088-14.7009,6.2494-2.1771,2.6339-1.7328,5.5368-1.787,11.1811-.007,18.4959.005,42.8626,0,60.0902.0612,5.1126-.3697,8.0091,1.4899,10.1511,3.0206,3.0656,7.8185,3.7643,12.0091,3.887l.1915-.0024Z"/>
    <path class="cls-1" d="M794.3788,278.6844c-1.4059-3.1793.0681-8.9657,3.7046-11.1186,2.4635-2.2142,8.5322-1.6997,8.5725-5.6812-.2803-34.4908.6414-112.46-.3405-129.8218-2.2503-2.9713-7.8256-2.874-10.3844-6.7271-2.7767-3.9802-3.0258-10.4275-.5653-14.1354,1.5043-1.5983,3.1804-1.7582,5.811-2.2087,5.1972-.6691,11.2021-1.3986,16.5615-2.0563,6.8196-.4652,14.4145-3.3041,18.3488,2.2932,1.2007,1.8202,2.0569,4.6079,2.9902,6.3671.7175,1.4146,1.5213,1.985,2.8008,1.6196,1.9757-.5227,5.177-3.6137,8.6495-5.6584,2.4794-1.5183,5.1074-2.7941,7.842-3.7769,22.9231-7.9613,47.784,3.466,56.1427,26.1851,12.8882,36.2874.8288,83.1409-39.8703,94.2529-25.5092,7.3996-34.5865-7.085-33.1742,15.2717.0955,3.4964.1215,7.0166.1437,10.5127.0207,3.7759.2735,7.4548,2.465,9.4701,1.8439,1.7359,4.4367,2.2259,6.8645,2.7577,2.7838.5535,5.9952,1.5337,7.5693,3.8584,1.8925,2.7418,2.1422,6.6863.502,9.5308-1.1961,1.7728-3.8438,1.4135-8.123,1.4638-6.1174-.003-12.2134.0022-18.4249,0-8.4096.0049-19.0527-.0036-26.4637,0-3.9428-.3502-10.6443,1.2061-11.5812-2.2948l-.0404-.1041ZM855.2409,216.6303c29.1064-1.3353,28.4699-46.7566,24.9338-68.0064-1.9908-11.4449-8.947-24.2441-22.1363-23.55-5.327.2761-11.0532,2.3088-14.7009,6.2494-2.1771,2.6339-1.7328,5.5368-1.787,11.1811-.007,18.4959.005,42.8626,0,60.0902.0612,5.1126-.3697,8.0091,1.4899,10.1511,3.0206,3.0656,7.8185,3.7643,12.0091,3.887l.1915-.0024Z"/>
    <path class="cls-1" d="M933.141,212.3557c1.8006-.606,2.5909-1.6222,2.5561-3.3753.0272-30.4677.0341-119.4871-.0138-133.9066-.0923-1.9459-.9335-2.6356-3.0868-3.4322-2.8523-.8876-7.5674-1.9508-9.8643-5.0201-2.878-3.4279-2.6688-7.8915.6778-10.2297,1.7691-1.1106,4.1715-1.4213,6.3354-1.7001,6.6979-.7983,17.0984-1.9944,24.1067-2.8116,7.4871-1.1282,18.7593-.5352,17.3461,9.4446-.0095,24.957.0073,113.448.0002,145.3739.0785,2.7483-.388,4.281,1.4084,5.2631,3.3649,1.5009,7.5027,1.6044,10.0569,4.7045,2.6351,2.8215,3.4475,7.5076,1.1081,10.6469-1.272,2.0788-7.0883,1.4309-11.4364,1.5434-11.2048.0108-24.0121-.0079-34.9066,0-3.9525-.1503-10.841.4653-13.0193-.7145-2.7925-1.6491-3.2365-6.2467-1.0664-9.993,1.9642-3.5537,6.1122-4.7594,9.6953-5.7556l.1027-.0377Z"/>
    <path class="cls-1" d="M991.2419,226.2784c-1.4362-3.4059-.3798-7.9335,2.4573-10.4393,2.9092-2.8042,7.2155-2.8338,9.0573-4.6345,2.1906-2.4376,1.0515-5.967,1.3344-9.2106-.4332-19.2427.8747-54.1999-.5192-69.1487-.7704-1.8523-3.1552-2.8418-5.1143-3.6339-2.3563-.9317-4.816-2.1088-6.4598-4.1361-3.0215-3.5871-3.0925-9.1543-1.5969-12.3731,1.1071-2.3582,3.539-2.9924,6.0391-3.377,7.1872-.9786,15.7472-1.8971,23.0133-2.8,7.4564-1.1075,16.7274-2.1271,19.8777,4.1151,1.9874,16.3864.0952,79.072.7375,96.9715-.458,5.3276,4.3319,4.6851,8.0686,6.881,2.928,1.6033,5.0858,5.3825,4.8447,8.6807-.0478,3.3718-1.7626,5.688-5.1508,5.6039-10.6597.1847-30.84-.0056-44.6176.0613-4.8774-.3392-10.4812,1.1463-11.9257-2.4567l-.0456-.1036ZM1018.7349,89.618c-14.3825.1029-22.2011-14.7229-16.6663-27.1945,6.6136-16.5352,34.5768-15.2947,37.343,3.2864,2.086,12.6585-7.2292,24.4445-20.4705,23.9116l-.2062-.0035Z"/>
  </g>
  <path class="cls-1" d="M537.1315,214.9474c-3.1369-2.2507-7.54-2.2929-9.6359-3.4463-1.7161-.8018-1.8147-2.0819-1.8288-3.7277.0845-18.3571-.2109-101.4356.1267-119.6944,1.4912-4.3325,8.6509-2.6586,12.2662-6.8645,3.6153-3.5308,4.3468-12.421-.816-13.3635-13.054-.5486-46.1811-.0141-59.8543-.197-6.963-.9565-7.4974,6.738-5.1624,11.4785,2.3772,5.0359,9.9312,4.9375,13.6025,7.0334,4.5435,2.9822,2.2508,9.8327,2.8134,16.008v35.3358c-22.9918,11.3811-50.8637,9.4344-72.2613-6.0478,0-.0003,0-.0006.0003-.0009,4.1215,1.9412,8.3697,3.4605,12.6601,4.5435.0141-21.269.0986-39.6965.1123-43.1006.0704-2.2507.1267-4.6561,1.871-6.1894,2.0255-1.7302,5.4159-2.1241,8.0884-2.9962,5.9221-1.4067,8.7354-7.9758,6.6817-13.4197-1.1677-2.9962-3.6149-2.5883-8.3838-2.6446-3.6857,0-7.3147-.0141-11.0845,0-14.4748.0703-31.7911-.1688-45.3936.1125-5.1205.4221-5.1627,7.357-2.7993,11.6755,2.1241,4.4591,9.3402,4.9655,12.5334,6.8224,1.1817.8018,1.294,1.885,1.3363,3.2073-.0282,15.3468.0704,90.2807-.0141,119.0754,0,1.6318-.7315,2.6586-2.3913,3.2353l-.0986.0422c-3.5167,1.0409-9.8468,1.9271-11.7737,6.2597-2.11,4.2622-1.5052,10.4938,3.798,10.3531,13.6588.1547,45.464-.0141,59.1791.0562,2.5177-.0141,5.3873.0844,6.3019-2.7008,1.2518-3.3761.4784-7.9337-2.5462-10.2547-4.206-3.7137-11.7737-1.463-14.6152-6.1472-.4221-2.94-.6333-17.5413-.7315-35.4906-.022-4.2211-.044-8.6356-.0522-13.1227,27.9169,9.2167,59.255,4.4826,83.5113-14.0265-7.0561,7.5454-15.1568,13.6737-23.9287,18.3013,0,18.4134,0,35.4764-.0137,39.3589.2249,3.7699-.9568,7.0053-5.0501,7.8352-7.779,1.2238-14.3062,6.3582-10.2266,14.6717,1.0691,1.4489,2.982,1.5192,4.7122,1.5614,6.4005.0282,19.0046,0,31.1441.0141,8.2429-.0141,14.9391.0141,22.0566,0,4.4876-.0422,7.2865.2673,8.595-1.5755,2.2646-3.1228,1.2377-9.4669-2.7289-11.9709Z"/>
</svg>